<?xml version="1.0" standalone="no"?>
<!DOCTYPE svg PUBLIC "-//W3C//DTD SVG 20010904//EN"
 "http://www.w3.org/TR/2001/REC-SVG-20010904/DTD/svg10.dtd">
<svg version="1.0" xmlns="http://www.w3.org/2000/svg"
 width="48.000000pt" height="48.000000pt" viewBox="0 0 48.000000 48.000000"
 preserveAspectRatio="xMidYMid meet">

<g transform="translate(0.000000,48.000000) scale(0.100000,-0.100000)"
fill="#000000" stroke="none">
<path d="M316 470 c-2 -8 -12 -40 -20 -71 -15 -53 -18 -57 -51 -63 -39 -8 -55
-2 -55 20 0 8 -4 14 -9 14 -4 0 -18 24 -30 53 -27 64 -36 53 -45 -57 -6 -63
-12 -86 -33 -113 -38 -49 -55 -120 -37 -155 20 -39 71 -75 127 -89 91 -23 227
9 259 61 7 11 22 20 33 21 11 0 15 3 8 5 -8 4 -10 20 -6 49 6 53 -23 125 -61
150 -14 10 -26 26 -26 36 0 34 -21 117 -35 135 -11 16 -14 17 -19 4z m76 -237
c54 -49 -22 -130 -81 -85 -32 24 -37 46 -17 77 20 30 70 34 98 8z m-187 -18
c30 -29 31 -49 5 -75 -57 -57 -147 22 -93 82 23 25 59 23 88 -7z"/>
<path d="M323 195 c0 -22 2 -30 4 -17 2 12 2 30 0 40 -3 9 -5 -1 -4 -23z"/>
<path d="M171 188 c-1 -21 4 -38 9 -38 12 0 12 27 0 55 -7 16 -9 13 -9 -17z"/>
</g>
</svg>
