<svg viewBox="0 0 107 107" fill="none" xmlns="http://www.w3.org/2000/svg"><path d="M41.23 70.5c-2.43 0-4.6-.6-6.5-1.8a12.2 12.2 0 0 1-4.5-5.21 19.34 19.34 0 0 1-1.6-8.19c0-3.16.53-5.88 1.6-8.15a12.2 12.2 0 0 1 4.5-5.25c1.9-1.2 4.07-1.8 6.5-1.8 2.44 0 4.6.6 6.51 1.8 1.9 1.2 3.39 2.96 4.45 5.25a18.63 18.63 0 0 1 1.64 8.15c0 3.16-.54 5.9-1.64 8.19a12 12 0 0 1-4.45 5.2 11.84 11.84 0 0 1-6.5 1.81Zm0-5.75c1.8 0 3.2-.77 4.2-2.31 1.04-1.54 1.56-3.92 1.56-7.14 0-3.22-.52-5.6-1.56-7.14a4.76 4.76 0 0 0-4.2-2.31c-1.76 0-3.16.77-4.2 2.31-1 1.54-1.51 3.92-1.51 7.14 0 3.22.5 5.6 1.51 7.14a4.82 4.82 0 0 0 4.2 2.31Zm36.63-6.89h-7.3v7.14h-5.43v-7.14h-7.26v-5.12h7.26v-7.14h5.42v7.14h7.31v5.12Z" fill="#E93A7D"/><rect x="2.5" y="2.5" width="102" height="102" rx="51" stroke="#E93A7D" stroke-width="5"/></svg>