<svg xmlns="http://www.w3.org/2000/svg"><style>:root svg:not(:target){display:none}</style><svg viewBox="0 0 64 64" fill="none" id="arrow"><path d="M32 .33a31.68 31.68 0 0 0 0 63.34 31.68 31.68 0 0 0 0-63.34Zm12.76 33.35-9.5 9.5a2.35 2.35 0 0 1-3.36 0 2.39 2.39 0 0 1 0-3.36l5.45-5.45h-16.43a2.4 2.4 0 0 1-2.38-2.37 2.4 2.4 0 0 1 2.38-2.38h16.43l-5.45-5.44a2.39 2.39 0 0 1 0-3.36 2.39 2.39 0 0 1 3.36 0l9.5 9.5c.92.92.92 2.44 0 3.36Z" fill="#292D32"></path></svg><svg viewBox="0 0 107 107" fill="none" id="disclaimer"><path d="M41.23 70.5c-2.43 0-4.6-.6-6.5-1.8a12.2 12.2 0 0 1-4.5-5.21 19.34 19.34 0 0 1-1.6-8.19c0-3.16.53-5.88 1.6-8.15a12.2 12.2 0 0 1 4.5-5.25c1.9-1.2 4.07-1.8 6.5-1.8 2.44 0 4.6.6 6.51 1.8 1.9 1.2 3.39 2.96 4.45 5.25a18.63 18.63 0 0 1 1.64 8.15c0 3.16-.54 5.9-1.64 8.19a12 12 0 0 1-4.45 5.2 11.84 11.84 0 0 1-6.5 1.81Zm0-5.75c1.8 0 3.2-.77 4.2-2.31 1.04-1.54 1.56-3.92 1.56-7.14 0-3.22-.52-5.6-1.56-7.14a4.76 4.76 0 0 0-4.2-2.31c-1.76 0-3.16.77-4.2 2.31-1 1.54-1.51 3.92-1.51 7.14 0 3.22.5 5.6 1.51 7.14a4.82 4.82 0 0 0 4.2 2.31Zm36.63-6.89h-7.3v7.14h-5.43v-7.14h-7.26v-5.12h7.26v-7.14h5.42v7.14h7.31v5.12Z" fill="#E93A7D"></path><rect x="2.5" y="2.5" width="102" height="102" rx="51" stroke="#E93A7D" stroke-width="5"></rect></svg><svg viewBox="0 0 9 12" fill="none" id="tooltip"><path d="M3.71142 7.87C3.71142 7.32524 3.8319 6.87476 4.07285 6.51857C4.32428 6.16238 4.68571 5.76952 5.15713 5.34C5.50285 5.02571 5.75428 4.76381 5.91142 4.55429C6.07904 4.33429 6.16285 4.08809 6.16285 3.81571C6.16285 3.42809 6.00571 3.12429 5.69142 2.90429C5.38761 2.67381 4.97904 2.55857 4.46571 2.55857C3.97332 2.55857 3.53332 2.66333 3.14571 2.87286C2.76856 3.0719 2.44904 3.35476 2.18713 3.72143L0.285706 2.60571C0.725706 1.93524 1.31761 1.41667 2.06142 1.05C2.81571 0.683333 3.70618 0.5 4.73285 0.5C5.93761 0.5 6.90142 0.756666 7.62428 1.27C8.35761 1.78333 8.72428 2.49571 8.72428 3.40714C8.72428 3.83667 8.65094 4.21381 8.50428 4.53857C8.36809 4.86333 8.19523 5.14095 7.98571 5.37143C7.78666 5.59143 7.52475 5.84809 7.19999 6.14143C6.81237 6.48714 6.52952 6.78048 6.35142 7.02143C6.17332 7.2519 6.08428 7.53476 6.08428 7.87H3.71142ZM4.90571 11.8143C4.47618 11.8143 4.11475 11.6781 3.82142 11.4057C3.53856 11.1229 3.39713 10.7824 3.39713 10.3843C3.39713 9.98619 3.53856 9.65619 3.82142 9.39429C4.10428 9.1219 4.46571 8.98571 4.90571 8.98571C5.34571 8.98571 5.70713 9.1219 5.98999 9.39429C6.27285 9.65619 6.41428 9.98619 6.41428 10.3843C6.41428 10.7824 6.26761 11.1229 5.97428 11.4057C5.69142 11.6781 5.33523 11.8143 4.90571 11.8143Z" fill="white"></path></svg><svg viewBox="0 0 16 18" fill="none" id="triangl"><path d="m15.59 9.04-14.83 8.23c-.17.1-.32.11-.44.04-.12-.08-.18-.21-.18-.4v-16.43c0-.2.06-.33.18-.4.12-.08.27-.07.44.03l14.83 8.23c.17.1.25.22.25.35 0 .13-.08.25-.25.35Z" fill="#fff"></path></svg></svg>