<svg width="9" height="12" viewBox="0 0 9 12" fill="none" xmlns="http://www.w3.org/2000/svg">
<path d="M3.71142 7.87C3.71142 7.32524 3.8319 6.87476 4.07285 6.51857C4.32428 6.16238 4.68571 5.76952 5.15713 5.34C5.50285 5.02571 5.75428 4.76381 5.91142 4.55429C6.07904 4.33429 6.16285 4.08809 6.16285 3.81571C6.16285 3.42809 6.00571 3.12429 5.69142 2.90429C5.38761 2.67381 4.97904 2.55857 4.46571 2.55857C3.97332 2.55857 3.53332 2.66333 3.14571 2.87286C2.76856 3.0719 2.44904 3.35476 2.18713 3.72143L0.285706 2.60571C0.725706 1.93524 1.31761 1.41667 2.06142 1.05C2.81571 0.683333 3.70618 0.5 4.73285 0.5C5.93761 0.5 6.90142 0.756666 7.62428 1.27C8.35761 1.78333 8.72428 2.49571 8.72428 3.40714C8.72428 3.83667 8.65094 4.21381 8.50428 4.53857C8.36809 4.86333 8.19523 5.14095 7.98571 5.37143C7.78666 5.59143 7.52475 5.84809 7.19999 6.14143C6.81237 6.48714 6.52952 6.78048 6.35142 7.02143C6.17332 7.2519 6.08428 7.53476 6.08428 7.87H3.71142ZM4.90571 11.8143C4.47618 11.8143 4.11475 11.6781 3.82142 11.4057C3.53856 11.1229 3.39713 10.7824 3.39713 10.3843C3.39713 9.98619 3.53856 9.65619 3.82142 9.39429C4.10428 9.1219 4.46571 8.98571 4.90571 8.98571C5.34571 8.98571 5.70713 9.1219 5.98999 9.39429C6.27285 9.65619 6.41428 9.98619 6.41428 10.3843C6.41428 10.7824 6.26761 11.1229 5.97428 11.4057C5.69142 11.6781 5.33523 11.8143 4.90571 11.8143Z" fill="white"/>
</svg>
